HIERARCHY
ROOT Hips
{
  OFFSET 48.983 95.4597 -1.07895
  CHANNELS 6 Xposition Yposition Zposition Zrotation Xrotation Yrotation
  JOINT spine
  {
    OFFSET 0 7.96568 0.458067
    CHANNELS 3 Zrotation Xrotation Yrotation
    JOINT spine1
    {
      OFFSET 0 10.2431 0
      CHANNELS 3 Zrotation Xrotation Yrotation
      JOINT spine2
      {
        OFFSET 0 9.81475 0
        CHANNELS 3 Zrotation Xrotation Yrotation
        JOINT Neck
        {
          OFFSET 0 25.1986 1.20138
          CHANNELS 3 Zrotation Xrotation Yrotation
          JOINT Head
          {
            OFFSET 0 7.61315 0
            CHANNELS 3 Zrotation Xrotation Yrotation
            End Site
            {
              OFFSET 0 18.4281 -6.07733
            }
          }
        }
        JOINT RightShoulder
        {
          OFFSET -4.1327 10.5992 -0.575451
          CHANNELS 3 Zrotation Xrotation Yrotation
          JOINT RightArm
          {
            OFFSET 0 13.9018 0
            CHANNELS 3 Zrotation Xrotation Yrotation
            JOINT RightArmRoll
            {
              OFFSET 0 7.01789 0
              CHANNELS 3 Zrotation Xrotation Yrotation
              JOINT RightForeArm
              {
                OFFSET 0 20.4406 0
                CHANNELS 3 Zrotation Xrotation Yrotation
                JOINT RightForeArmRoll
                {
                  OFFSET 0 7.87515 0
                  CHANNELS 3 Zrotation Xrotation Yrotation
                  JOINT RightHand
                  {
                    OFFSET 0 15.8037 0
                    CHANNELS 3 Zrotation Xrotation Yrotation
                    End Site
                    {
                      OFFSET 0 0 0
                    }
                  }
                }
              }
            }
          }
        }
        JOINT LeftShoulder
        {
          OFFSET 4.1327 10.5992 -0.575451
          CHANNELS 3 Zrotation Xrotation Yrotation
          JOINT LeftArm
          {
            OFFSET 0 13.9018 0
            CHANNELS 3 Zrotation Xrotation Yrotation
            JOINT LeftArmRoll
            {
              OFFSET 0 7.01788 0
              CHANNELS 3 Zrotation Xrotation Yrotation
              JOINT LeftForeArm
              {
                OFFSET 0 20.4406 0
                CHANNELS 3 Zrotation Xrotation Yrotation
                JOINT LeftForeArmRoll
                {
                  OFFSET 0 7.87515 0
                  CHANNELS 3 Zrotation Xrotation Yrotation
                  JOINT LeftHand
                  {
                    OFFSET 0 15.8037 0
                    CHANNELS 3 Zrotation Xrotation Yrotation
                    End Site
                    {
                      OFFSET 0 0 0
                    }
                  }
                }
              }
            }
          }
        }
      }
    }
  }
  JOINT RightUpLeg
  {
    OFFSET -7.06048 -1.2947 -1.0861
    CHANNELS 3 Zrotation Xrotation Yrotation
    JOINT RightUpLegRoll
    {
      OFFSET 0 18.5308 0
      CHANNELS 3 Zrotation Xrotation Yrotation
      JOINT RightLeg
      {
        OFFSET 0 -22.9476 0
        CHANNELS 3 Zrotation Xrotation Yrotation
        JOINT RightLegRoll
        {
          OFFSET 0 23.0226 0
          CHANNELS 3 Zrotation Xrotation Yrotation
          JOINT RightFoot
          {
            OFFSET 0 19.1625 0
            CHANNELS 3 Zrotation Xrotation Yrotation
            JOINT RightToeBase
            {
              OFFSET 0 16.0188 0
              CHANNELS 3 Zrotation Xrotation Yrotation
              End Site
              {
                OFFSET 0.00678979 7.75782 -0.894206
              }
            }
          }
        }
      }
    }
  }
  JOINT LeftUpLeg
  {
    OFFSET 7.06048 -1.2947 -1.0861
    CHANNELS 3 Zrotation Xrotation Yrotation
    JOINT LeftUpLegRoll
    {
      OFFSET 0 18.5309 0
      CHANNELS 3 Zrotation Xrotation Yrotation
      JOINT LeftLeg
      {
        OFFSET 0 22.9475 0
        CHANNELS 3 Zrotation Xrotation Yrotation
        JOINT LeftLegRoll
        {
          OFFSET 0 23.2355 0
          CHANNELS 3 Zrotation Xrotation Yrotation
          JOINT LeftFoot
          {
            OFFSET 0 18.9496 0
            CHANNELS 3 Zrotation Xrotation Yrotation
            JOINT LeftToeBase
            {
              OFFSET 0 16.0188 0
              CHANNELS 3 Zrotation Xrotation Yrotation
              End Site
              {
                OFFSET -0.0304289 7.75782 -0.894206
              }
            }
          }
        }
      }
    }
  }
}
MOTION
Frames: 8
Frame Time: 0.00208333
91.644 93.0761 11.0277 -18.0203 -4.23421 123.351 0.220943 0.0360771 1.69836 0.424961 4.08198 3.36823 0.385079 5.72586 3.36489 -52.955 -3.51962 -8.25596 48.4765 12.0091 -15.9621 11.2769 20.9007 36.5932 171.773 38.032 -40.2336 1.16804e-006 2.90213e-007 -3.20942e-006 0.397831 9.50161 -0.436621 -6.87981e-006 2.26817e-006 -3.00939 8.02893 -4.95142 0.697582 -98.0203 -7.4739 5.79931 -69.7282 -10.492 27.6067 2.54444e-014 7.95139e-016 3.18055e-014 -175.684 85.9617 -171.976 1.38835e-006 3.53769e-006 2.99999 -8.02921 -4.95147 -0.697586 -176.875 -4.75386 -5.23204 -180 7.01591e-015 179.138 177.677 6.44045 179.609 3.9803e-006 1.24934e-006 0.0242638 -16.9663 66.3104 18.2709 13.2681 41.4499 -16.2377 161.335 33.7572 23.2777 4.54188e-006 -4.6773e-006 -0.912807 2.09775 -16.6575 0.964209 2.68343e-006 -3.0579e-006 -0.898481 26.2883 73.5788 -26.0637 -8.13649 25.2327 3.48794 
91.6692 93.0799 11.0376 -18.0022 -4.23657 123.397 0.223818 0.0461318 1.70296 0.430375 4.10219 3.37703 0.390397 5.74606 3.37364 -52.9198 -3.49174 -8.26284 48.4386 11.9888 -15.968 11.2834 20.8624 36.5401 171.887 37.8268 -40.3607 1.16804e-006 2.90213e-007 -3.20942e-006 0.56587 9.53702 -0.465465 -6.87981e-006 2.26817e-006 -3.00939 8.02893 -4.95142 0.697582 -97.9992 -7.47967 5.8 -69.7653 -10.5257 27.5829 3.18055e-015 -3.97569e-015 3.18055e-015 -175.604 85.9736 -172.067 1.38835e-006 3.53769e-006 2.99999 -8.02921 -4.95147 -0.697586 -176.858 -4.75918 -5.24504 -180 7.01592e-015 179.138 177.684 6.43641 179.609 3.9803e-006 1.24934e-006 0.0242599 -16.9672 66.3126 18.2732 13.2767 41.4639 -16.2511 161.345 33.7511 23.2625 4.54188e-006 -4.6773e-006 -0.91515 2.09198 -16.6887 0.964921 2.68343e-006 -3.0579e-006 -0.901002 26.3057 73.5927 -26.0852 -8.13649 25.2327 3.48794 
91.6961 93.0755 11.0384 -17.9864 -4.23684 123.442 0.226195 0.0558442 1.70694 0.434806 4.12169 3.38468 0.394745 5.76555 3.38123 -52.8845 -3.46349 -8.26838 48.3973 11.9697 -15.9734 11.2853 20.8213 36.4869 172.005 37.6216 -40.4936 1.16804e-006 2.90213e-007 -3.20942e-006 0.736358 9.56733 -0.49441 -6.87981e-006 2.26817e-006 -3.00939 8.02893 -4.95142 0.697582 -97.9787 -7.48535 5.8007 -69.8018 -10.5578 27.5585 9.54166e-015 -1.63003e-014 1.27222e-014 -175.507 85.9866 -172.176 1.38835e-006 3.53769e-006 2.99999 -8.02921 -4.95147 -0.697586 -176.846 -4.7633 -5.2548 -180 7.01592e-015 179.139 177.69 6.43291 179.609 3.9803e-006 1.24934e-006 0.0242559 -16.968 66.3145 18.2752 13.288 41.482 -16.269 161.353 33.7439 23.2492 4.54188e-006 -4.6773e-006 -0.917284 2.08594 -16.7156 0.965335 2.68343e-006 -3.0579e-006 -0.90303 26.3223 73.606 -26.1059 -8.13649 25.2327 3.48794 
91.7167 93.0687 11.0517 -17.9726 -4.23518 123.486 0.228118 0.065269 1.71041 0.438341 4.1406 3.39135 0.398207 5.78446 3.38786 -52.8492 -3.43494 -8.27283 48.3532 11.9519 -15.9782 11.2835 20.778 36.4337 172.124 37.4172 -40.631 1.16804e-006 2.90213e-007 -3.20942e-006 0.908465 9.59361 -0.523391 -6.87981e-006 2.26817e-006 -3.00939 8.02893 -4.95142 0.697582 -97.9589 -7.49079 5.80136 -69.8373 -10.5882 27.5337 4.77083e-015 -9.54166e-015 6.36111e-015 -175.396 86.0003 -172.3 1.38835e-006 3.53769e-006 2.99999 -8.02921 -4.95147 -0.697586 -176.839 -4.76638 -5.26167 -180 7.01592e-015 179.14 177.694 6.42992 179.609 3.9803e-006 1.24934e-006 0.0242517 -16.9686 66.316 18.2768 13.3018 41.5035 -16.2909 161.359 33.7357 23.2376 4.54188e-006 -4.6773e-006 -0.919221 2.07969 -16.7383 0.965475 2.68343e-006 -3.0579e-006 -0.904605 26.3377 73.6185 -26.1254 -8.13649 25.2327 3.48794 
91.7412 93.0699 11.0391 -17.9607 -4.23178 123.529 0.229632 0.074461 1.71344 0.441068 4.15904 3.3972 0.40087 5.80289 3.39369 -52.8137 -3.4062 -8.27647 48.3068 11.9351 -15.9829 11.2784 20.7326 36.3803 172.243 37.2141 -40.7714 1.16804e-006 2.90213e-007 -3.20942e-006 1.08136 9.61697 -0.552344 -6.87981e-006 2.26817e-006 -3.00939 8.02893 -4.95142 0.697582 -97.9399 -7.4958 5.80196 -69.8715 -10.6168 27.509 2.06736e-014 -3.97569e-015 2.22639e-014 -175.273 86.0148 -172.438 1.38835e-006 3.53769e-006 2.99999 -8.02921 -4.95147 -0.697586 -176.835 -4.76857 -5.26597 -180 7.01592e-015 179.141 177.698 6.42734 179.609 3.9803e-006 1.24934e-006 0.0242474 -16.969 66.3174 18.2781 13.3176 41.5281 -16.3164 161.363 33.7263 23.2275 4.54188e-006 -4.6773e-006 -0.920974 2.07331 -16.7571 0.965365 2.68343e-006 -3.0579e-006 -0.905767 26.352 73.6303 -26.1438 -8.13649 25.2327 3.48794 
91.7585 93.0747 11.0421 -17.9502 -4.22679 123.571 0.230781 0.0834751 1.71613 0.443074 4.1771 3.40243 0.402819 5.82096 3.3989 -52.7781 -3.37734 -8.27955 48.2586 11.9196 -15.9875 11.2709 20.6857 36.3268 172.363 37.0131 -40.9132 1.16804e-006 2.90213e-007 -3.20942e-006 1.25423 9.63849 -0.581207 -6.87981e-006 2.26817e-006 -3.00939 8.02893 -4.95142 0.697582 -97.9219 -7.50023 5.80246 -69.904 -10.6435 27.4846 9.54166e-015 -7.95139e-016 1.59028e-014 -175.139 86.0298 -172.586 1.38835e-006 3.53769e-006 2.99999 -8.02921 -4.95147 -0.697586 -176.835 -4.77001 -5.26803 -180 7.01592e-015 179.141 177.701 6.42511 179.609 3.9803e-006 1.24934e-006 0.024243 -16.9693 66.3186 18.2792 13.3354 41.5553 -16.345 161.366 33.7157 23.2187 4.54188e-006 -4.6773e-006 -0.922554 2.06685 -16.7723 0.965031 2.68343e-006 -3.0579e-006 -0.906555 26.365 73.6412 -26.1607 -8.13649 25.2327 3.48794 
91.7757 93.0718 11.0313 -17.941 -4.22038 123.613 0.23161 0.0923659 1.71858 0.444445 4.19492 3.40719 0.404137 5.83877 3.40366 -52.7423 -3.34846 -8.28233 48.2092 11.9051 -15.9923 11.2617 20.6375 36.2729 172.48 36.8148 -41.055 1.16804e-006 2.90213e-007 -3.20942e-006 1.42624 9.65927 -0.609915 -6.87981e-006 2.26817e-006 -3.00939 8.02893 -4.95142 0.697582 -97.9049 -7.50391 5.80282 -69.9347 -10.6683 27.4609 1.43125e-014 2.78299e-014 1.27222e-014 -174.999 86.0453 -172.742 1.38835e-006 3.53769e-006 2.99999 -8.02921 -4.95147 -0.697586 -176.838 -4.77087 -5.26817 -180 7.01592e-015 179.142 177.703 6.42316 179.609 3.9803e-006 1.24934e-006 0.0242384 -16.9696 66.3197 18.2801 13.3547 41.5848 -16.3762 161.366 33.7039 23.2113 4.54188e-006 -4.6773e-006 -0.923976 2.06039 -16.784 0.964498 2.68343e-006 -3.0579e-006 -0.907008 26.3765 73.651 -26.1761 -8.13649 25.2327 3.48794 
91.7838 93.073 11.0353 -17.9327 -4.21274 123.654 0.232162 0.101188 1.72087 0.445267 4.21259 3.41168 0.404909 5.85643 3.40814 -52.7063 -3.31963 -8.28509 48.159 11.8917 -15.9975 11.2514 20.5885 36.2188 172.596 36.6198 -41.1955 1.16804e-006 2.90213e-007 -3.20942e-006 1.59656 9.68039 -0.638405 -6.87981e-006 2.26817e-006 -3.00939 8.02893 -4.95142 0.697582 -97.8891 -7.50667 5.80302 -69.963 -10.6912 27.4382 -8.82781e-032 1.59028e-015 3.18055e-015 -174.853 86.061 -172.903 1.38835e-006 3.53769e-006 2.99999 -8.02921 -4.95147 -0.697586 -176.843 -4.77129 -5.26673 -180 7.01592e-015 179.142 177.705 6.42144 179.61 3.9803e-006 1.24934e-006 0.0242336 -16.9699 66.3207 18.2809 13.3753 41.616 -16.4096 161.366 33.6908 23.2048 4.54188e-006 -4.6773e-006 -0.925251 2.05398 -16.7925 0.96379 2.68343e-006 -3.0579e-006 -0.907168 26.3864 73.6598 -26.1897 -8.13649 25.2327 3.48794 
